<svg width="25" height="25" viewBox="0 0 25 25" fill="none" xmlns="http://www.w3.org/2000/svg">
<g clip-path="url(#clip0_2_45)">
<path fill-rule="evenodd" clip-rule="evenodd" d="M0 0H25V25H0V0Z" fill="#F7DF1E"/>
<path fill-rule="evenodd" clip-rule="evenodd" d="M6.57343 20.8918L8.4866 19.734C8.85569 20.3884 9.19144 20.9421 9.9968 20.9421C10.7688 20.9421 11.2555 20.6401 11.2555 19.4655V11.4774H13.6049V19.4987C13.6049 21.9321 12.1785 23.0396 10.0975 23.0396C8.21811 23.0396 7.12716 22.0663 6.57339 20.8916" fill="black"/>
<path fill-rule="evenodd" clip-rule="evenodd" d="M14.881 20.6401L16.7939 19.5325C17.2975 20.3549 17.952 20.959 19.1098 20.959C20.0833 20.959 20.704 20.4723 20.704 19.801C20.704 18.9955 20.0664 18.7102 18.9923 18.2404L18.4051 17.9885C16.7101 17.2671 15.5857 16.3609 15.5857 14.4477C15.5857 12.6857 16.9282 11.3431 19.026 11.3431C20.5195 11.3431 21.5935 11.8634 22.3654 13.2227L20.5362 14.3973C20.1334 13.6758 19.6972 13.3906 19.026 13.3906C18.3379 13.3906 17.9016 13.8269 17.9016 14.3973C17.9016 15.1022 18.3379 15.3875 19.3447 15.8239L19.932 16.0756C21.9291 16.9315 23.0535 17.8041 23.0535 19.7674C23.0535 21.882 21.3921 23.0398 19.1602 23.0398C16.9786 23.0398 15.5689 21.9994 14.881 20.6401" fill="black"/>
</g>
<defs>
<clipPath id="clip0_2_45">
<rect width="25" height="25" fill="white"/>
</clipPath>
</defs>
</svg>
