<svg width="25" height="25" viewBox="0 0 25 25" fill="none" xmlns="http://www.w3.org/2000/svg">
<path fill-rule="evenodd" clip-rule="evenodd" d="M12.5221 24.6617C12.1863 24.6617 11.8729 24.5722 11.5819 24.4155L8.60433 22.6469C8.15658 22.4006 8.38045 22.311 8.51478 22.2663C9.11924 22.0648 9.23117 22.02 9.85802 21.6618C9.92519 21.617 10.0147 21.6394 10.0819 21.6842L12.3654 23.0498C12.455 23.0946 12.5669 23.0946 12.6341 23.0498L21.5667 17.8783C21.6562 17.8336 21.701 17.744 21.701 17.6321V7.31144C21.701 7.1995 21.6562 7.10995 21.5667 7.06518L12.6341 1.91606C12.5445 1.87129 12.4326 1.87129 12.3654 1.91606L3.43282 7.06518C3.34327 7.10995 3.29849 7.22189 3.29849 7.31144V17.6321C3.29849 17.7216 3.34327 17.8336 3.43282 17.8783L5.87305 19.2887C7.19391 19.9604 8.02225 19.1768 8.02225 18.3932V8.20694C8.02225 8.07261 8.13419 7.93829 8.2909 7.93829H9.43266C9.56699 7.93829 9.70131 8.05023 9.70131 8.20694V18.3932C9.70131 20.1618 8.73865 21.1917 7.05959 21.1917C6.54468 21.1917 6.1417 21.1917 4.99994 20.632L2.64926 19.2887C2.06718 18.9529 1.70898 18.3261 1.70898 17.6545V7.33383C1.70898 6.6622 2.06718 6.03536 2.64926 5.69954L11.5819 0.528037C12.1415 0.214613 12.9027 0.214613 13.4624 0.528037L22.395 5.69954C22.9771 6.03536 23.3353 6.6622 23.3353 7.33383V17.6545C23.3353 18.3261 22.9771 18.9529 22.395 19.2887L13.4624 24.4602C13.1714 24.5946 12.8356 24.6617 12.5221 24.6617ZM15.2758 17.5649C11.358 17.5649 10.552 15.7739 10.552 14.2516C10.552 14.1172 10.664 13.9829 10.8207 13.9829H11.9848C12.1192 13.9829 12.2311 14.0725 12.2311 14.2068C12.4102 15.3933 12.9251 15.9754 15.2982 15.9754C17.1787 15.9754 17.9847 15.55 17.9847 14.5426C17.9847 13.9605 17.7608 13.5352 14.828 13.2441C12.3878 12.9979 10.8655 12.4606 10.8655 10.5128C10.8655 8.69946 12.3878 7.62487 14.94 7.62487C17.8056 7.62487 19.216 8.60991 19.3951 10.7591C19.3951 10.8263 19.3727 10.8934 19.3279 10.9606C19.2831 11.0054 19.216 11.0501 19.1488 11.0501H17.9847C17.8727 11.0501 17.7608 10.9606 17.7384 10.8487C17.4698 9.61735 16.7758 9.21438 14.94 9.21438C12.8803 9.21438 12.6341 9.93078 12.6341 10.4681C12.6341 11.1173 12.9251 11.3188 15.7012 11.677C18.4548 12.0352 19.7533 12.5501 19.7533 14.4754C19.7309 16.4455 18.119 17.5649 15.2758 17.5649Z" fill="#539E43"/>
</svg>
