<svg width="25" height="25" viewBox="0 0 25 25" fill="none" xmlns="http://www.w3.org/2000/svg">
<path d="M17.021 16.8407C17.8859 16.7527 18.542 16.0196 18.5122 15.1399C18.4824 14.2602 17.7367 13.5565 16.842 13.5565H16.7824C15.8577 13.5858 15.1419 14.3482 15.1718 15.2572C15.2016 15.697 15.3805 16.0782 15.649 16.3421C14.6349 18.3068 13.084 19.7436 10.7577 20.9459C9.17691 21.7669 7.53656 22.0602 5.89621 21.8549C4.55405 21.679 3.51016 21.0926 2.85391 20.1248C1.89957 18.688 1.81012 17.1338 2.61542 15.5798C3.18213 14.4655 4.07678 13.6444 4.64349 13.2339C4.5242 12.8527 4.34521 12.2076 4.25577 11.7385C-0.0689098 14.8174 0.378508 18.9813 1.69083 20.9459C2.67502 22.4121 4.67334 23.3211 6.8804 23.3211C7.47687 23.3211 8.07333 23.2624 8.66989 23.1159C12.4875 22.3827 15.3806 20.1541 17.021 16.8407ZM22.2702 13.2046C20.0035 10.5948 16.6631 9.15805 12.8454 9.15805H12.3683C12.0998 8.63024 11.5331 8.27831 10.9068 8.27831H10.8471C9.92261 8.30766 9.20685 9.07002 9.2366 9.9791C9.26645 10.8588 10.0121 11.5625 10.9068 11.5625H10.9664C11.6226 11.5332 12.1893 11.1227 12.4279 10.5655H12.9647C15.2315 10.5655 17.3788 11.2106 19.3176 12.4715C20.8088 13.4392 21.8825 14.7001 22.479 16.2248C22.986 17.4564 22.9561 18.6587 22.4193 19.685C21.5842 21.2391 20.1825 22.0895 18.3333 22.0895C17.1403 22.0895 16.0069 21.7376 15.4104 21.4737C15.0823 21.7669 14.4858 22.236 14.0682 22.5294C15.3508 23.1158 16.6631 23.4384 17.9157 23.4384C20.7789 23.4384 22.8965 21.8842 23.7018 20.3301C24.5667 18.6293 24.507 15.697 22.2702 13.2046ZM7.11899 17.3391C7.14883 18.2188 7.89444 18.9225 8.78918 18.9225H8.84888C9.77347 18.8932 10.4892 18.1308 10.4594 17.2218C10.4296 16.342 9.68393 15.6384 8.78918 15.6384H8.72958C8.66989 15.6384 8.58035 15.6384 8.52084 15.6676C7.29797 13.6737 6.79095 11.5038 6.96994 9.15796C7.08914 7.39858 7.6857 5.87375 8.72958 4.61283C9.59448 3.52787 11.2647 3.00007 12.3981 2.97081C15.5595 2.91213 16.9016 6.78274 16.9911 8.33691C17.3788 8.42485 18.035 8.63016 18.4824 8.77678C18.1245 4.02652 15.1419 1.56336 12.2788 1.56336C9.59448 1.56336 7.11899 3.46937 6.1347 6.28437C4.76279 10.0377 5.65753 13.6444 7.32773 16.4888C7.17868 16.694 7.08914 17.0166 7.11899 17.3391V17.3391Z" fill="#764ABC"/>
</svg>
