<svg width="25" height="25" viewBox="0 0 25 25" fill="none" xmlns="http://www.w3.org/2000/svg">
<path d="M12.5 4.98047C9.16667 4.98047 7.08333 6.64714 6.25 9.98047C7.5 8.3138 8.95833 7.6888 10.625 8.10547C11.5759 8.3432 12.2556 9.03306 13.0079 9.79672C14.2335 11.0407 15.6519 12.4805 18.75 12.4805C22.0833 12.4805 24.1667 10.8138 25 7.48047C23.75 9.14714 22.2917 9.77214 20.625 9.35547C19.6741 9.11774 18.9944 8.42788 18.2421 7.66422C17.0165 6.42024 15.5981 4.98047 12.5 4.98047ZM6.25 12.4805C2.91667 12.4805 0.833333 14.1471 0 17.4805C1.25 15.8138 2.70833 15.1888 4.375 15.6055C5.32593 15.8432 6.0056 16.5331 6.75792 17.2967C7.98347 18.5407 9.4019 19.9805 12.5 19.9805C15.8333 19.9805 17.9167 18.3138 18.75 14.9805C17.5 16.6471 16.0417 17.2721 14.375 16.8555C13.4241 16.6177 12.7444 15.9279 11.9921 15.1642C10.7665 13.9202 9.3481 12.4805 6.25 12.4805Z" fill="url(#paint0_linear_2_178)"/>
<defs>
<linearGradient id="paint0_linear_2_178" x1="-0.694445" y1="9.78047" x2="20.8972" y2="22.2297" gradientUnits="userSpaceOnUse">
<stop stop-color="#2298BD"/>
<stop offset="1" stop-color="#0ED7B5"/>
</linearGradient>
</defs>
</svg>
